<?xml version="1.0" encoding="UTF-8" standalone="no"?>
<svg height="70" width="40" xmlns="http://www.w3.org/2000/svg">
  <path d="m14.7419 55.443q3.8176 0 6.4734 1.4939 2.6558 1.4386 2.6558 4.1497 0 2.6005-2.6004 4.0391-2.6004 1.3833-6.2521 1.3833-3.8176 0-6.4181-1.4386-2.6004-1.4386-2.6004-4.2604 0-1.9919 1.6045-3.2644 1.6598-1.2726 3.4857-1.6599 1.8258-.4427 3.6517-.4427zm-2.9877 3.9284q0 2.3239 1.0512 4.0944 1.0512 1.7706 2.7111 1.7706 2.5451 0 2.5451-2.7665 0-2.2132-1.0512-3.9284-.9959-1.7706-2.7664-1.7706-2.4898 0-2.4898 2.6005z"/>
</svg>
