<?xml version="1.0" encoding="UTF-8" standalone="no"?>
<svg height="70" width="40" xmlns="http://www.w3.org/2000/svg">
  <path d="m8 63.0039q0-3.0116 2.9537-5.3282 2.9537-2.3745 6.2549-2.3745 1.9112 0 3.417.9846v-34.2857h1.2162q.2316 2.027 1.4479 3.9382 1.2741 1.8533 2.8958 3.417 1.6216 1.5058 3.1854 3.1274 1.6216 1.5637 2.722 3.7065 1.1004 2.0849 1.1004 4.4595 0 1.9691-.9266 3.9961 1.1004 1.6216 1.1004 4.2857 0 4.4595-2.2008 8.1081h-1.39q2.027-4.054 2.027-7.3552 0-1.8533-.9266-3.4749-.8687-1.6216-2.722-2.9537-1.7954-1.3321-3.0116-2.027-1.1583-.695-3.2433-1.7374v19.9807q0 3.2433-2.8379 5.3861-2.8379 2.1429-6.2549 2.1429-1.9112 0-3.3591-1.1004-1.4479-1.1584-1.4479-2.8958zm23.3979-21.3707q0-5.9653-9.4981-11.1197 0 1.6795.695 3.1853.695 1.5058 1.8533 2.722 1.1583 1.1583 2.3745 2.1428 1.2162.9846 2.4904 2.2008 1.2741 1.1583 1.9691 2.2007.1158-.9266.1158-1.332z"/>
</svg>
