<?xml version="1.0" encoding="UTF-8" standalone="no"?>
<svg height="70" width="40" xmlns="http://www.w3.org/2000/svg">
  <path d="m8 63.0039q0-3.0116 2.9537-5.3282 2.9538-2.3745 6.255-2.3745 1.9113 0 3.4171.9846v-34.2858h1.2742v37.471q0 3.2433-2.8379 5.3861-2.8379 2.1429-6.255 2.1429-1.9113 0-3.3592-1.1004-1.4479-1.1583-1.4479-2.8957zm2.6642 1.7374q3.0696 0 6.1971-2.6062 3.1854-2.6062 3.1854-3.8803 0-.8108-.695-.8108-2.1429 0-5.9075 2.4903-3.7067 2.4324-3.7067 4.0541 0 .7529.9267.7529z"/>
</svg>
