<?xml version="1.0" encoding="UTF-8" standalone="no"?>
<svg height="70" width="40" xmlns="http://www.w3.org/2000/svg">
  <path d="m8.058 63.0039q0-3.0116 2.9537-5.3282 2.9537-2.3745 6.2549-2.3745 1.9112 0 3.417.9846v-34.2857h1.2162q.5212 3.3591 1.9112 6.0232 1.39 2.6641 2.9537 4.4016 1.6216 1.6795 3.1274 3.3591 1.5058 1.6216 2.4904 3.8803 1.0425 2.2007 1.0425 4.9807 0 4.9228-4.112 11.5251h-1.3321q.2896-.637.9267-2.027.695-1.39.9266-1.9112.2316-.5212.6371-1.5637.4054-1.0425.5212-1.6795.1737-.695.2896-1.6216.1737-.9266.1737-1.8533 0-3.8803-2.8958-7.2393-2.8379-3.3591-6.6024-3.5907v24.7876q0 3.2433-2.8379 5.3861-2.8379 2.1428-6.2549 2.1428-1.9112 0-3.3591-1.1004-1.4479-1.1583-1.4479-2.8958z"/>
</svg>
