<?xml version="1.0" encoding="UTF-8" standalone="no"?>
<svg height="70" width="40" xmlns="http://www.w3.org/2000/svg">
  <path d="m20.8419 38.3655q.9558 0 2.3894-1.4336 1.4337-1.4336 2.1505-2.6282h1.3142l-8.9005 31.8973h-2.2102l4.3009-15.5305q-2.8076 1.4336-4.5399 1.4336-1.7323 0-3.2257-1.1947-1.4336-1.2544-1.4336-3.0464 0-1.3141.9558-2.3893.9558-1.1349 2.6283-1.1349 1.6128 0 2.5686 1.1349.9558 1.0752.9558 2.3893 0 .896-.4182 1.6725.2389.1194.2986.1194 1.135 0 3.166-2.2101l2.2102-8.0042q-2.6881 1.3738-4.5996 1.3738-1.6726 0-3.1659-1.1947-1.4934-1.1947-1.4934-2.9866 0-1.553 1.0155-2.5088 1.0752-1.0154 2.5089-1.0154 1.4934 0 2.5088 1.0154 1.0752 1.0155 1.0752 2.5088 0 .896-.3583 1.6128.2389.1194.2986.1194z"/>
</svg>
