<?xml version="1.0" encoding="UTF-8" standalone="no"?>
<svg height="70" width="40" xmlns="http://www.w3.org/2000/svg">
  <path d="m41 17.125h-42v1h42z"/>
  <path d="m17.2266 3.4449q.9297-.2733 1.7969-.4063.875-.1406 1.711-.1406 1.8985 0 2.9141.7579 1.0157.75 1.0157 2.1563 0 1.0547-.586 1.711-.586.6563-1.711.8829 1.3751.2423 2.0469 1.0391.6797.7969.6797 2.1798 0 1.6328-1.1641 2.5079-1.164.8671-3.375.8671-.8281 0-1.711-.1561-.8828-.1561-1.8438-.4688v-2.5626h.8516q.0782 1.1094.625 1.6954.5469.5781 1.5157.5781 1.0703 0 1.6485-.6563.586-.6641.586-1.875 0-1.2657-.6094-1.9532-.6016-.6875-1.7188-.6875h-.4688v-.9375h.367q1.0313 0 1.5469-.5313.5234-.5313.5234-1.586 0-.9922-.4922-1.5157-.4844-.5313-1.3985-.5313-.8282 0-1.3125.5078-.4844.4998-.586 1.4608h-.8516z"/>
</svg>
