<?xml version="1.0" encoding="UTF-8" standalone="no"?>
<svg height="64" viewBox="0 0 64 64" width="64" xmlns="http://www.w3.org/2000/svg" xmlns:svg="http://www.w3.org/2000/svg">
  <path d="m34 10c-5.4445 0-10.4377 2.009-14.2891 5.3145l7.3282 6.9316c2.0139-1.4412 4.4419-2.2418 6.9609-2.2461 6.6274 0 12 5.3726 12 12s-5.3726 12-12 12c-6.3486 0-11.5427-4.9314-11.9687-11.1719l5.8593 1.1719v-2l-10.9453-10-10.9453 10v2l6.0215-1.2051c.4223 11.738 10.1419 21.2051 21.9785 21.2051 12.1029 0 22-9.8971 22-22s-9.8971-22-22-22z"/>
</svg>
