<?xml version="1.0" encoding="UTF-8" standalone="no"?>
<svg height="64" viewBox="0 0 64 64" width="64" xmlns="http://www.w3.org/2000/svg" xmlns:dc="http://purl.org/dc/elements/1.1/" xmlns:cc="http://creativecommons.org/ns#" xmlns:rdf="http://www.w3.org/1999/02/22-rdf-syntax-ns#" xmlns:svg="http://www.w3.org/2000/svg">
  <path d="m34 10c-6.4287 0-12.2343 2.7925-16.2656 7.2246l5.9433 5.3027c2.5523-2.7827 6.2144-4.5273 10.3223-4.5273 7.7794 0 14 6.2206 14 14s-6.2206 14-14 14c-7.5062 0-13.5431-5.7963-13.959-13.1914l5.959 1.1914v-2l-10-10-10 10v2l6.0215-1.2051c.4223 11.738 10.1419 21.2051 21.9785 21.2051 12.1029 0 22-9.8971 22-22s-9.8971-22-22-22z" font-variant-ligatures="normal" font-variant-position="normal" font-variant-caps="normal" font-variant-numeric="normal" font-variant-alternates="normal" font-feature-settings="normal" text-indent="0" text-align="start" text-decoration-line="none" text-decoration-style="solid" text-decoration-color="#000000" text-transform="none" text-orientation="mixed" white-space="normal" shape-padding="0" isolation="auto" mix-blend-mode="normal" solid-color="#000000" solid-opacity="1" vector-effect="none"/>
</svg>
